<?xml version="1.0" standalone="no"?>
<!DOCTYPE svg PUBLIC "-//W3C//DTD SVG 20010904//EN"
 "http://www.w3.org/TR/2001/REC-SVG-20010904/DTD/svg10.dtd">
<svg version="1.0" xmlns="http://www.w3.org/2000/svg"
 width="700.000000pt" height="700.000000pt" viewBox="0 0 700.000000 700.000000"
 preserveAspectRatio="xMidYMid meet">
<metadata>
Created by potrace 1.11, written by Peter Selinger 2001-2013
</metadata>
<g transform="translate(0.000000,700.000000) scale(0.100000,-0.100000)"
fill="#000000" stroke="none">
<path d="M2515 5936 c-617 -391 -824 -542 -1083 -790 -316 -304 -510 -548
-721 -910 -193 -330 -298 -656 -328 -1016 -12 -148 -5 -516 11 -606 2 -10 7
-41 10 -69 19 -132 39 -244 52 -287 3 -9 7 -26 9 -38 2 -11 9 -35 14 -53 40
-125 54 -166 67 -194 8 -17 14 -34 14 -37 0 -18 116 -236 161 -304 68 -101
198 -229 296 -292 109 -70 246 -127 382 -161 152 -37 173 -39 391 -44 260 -5
407 24 579 116 219 118 410 353 501 619 102 296 50 705 -121 957 -42 61 -158
178 -230 230 -80 59 -224 129 -326 158 -196 57 -299 68 -680 68 -249 0 -251 0
-248 21 2 12 11 69 19 128 28 193 92 443 142 555 13 31 24 59 24 63 0 27 208
375 239 400 4 3 22 25 41 50 65 84 253 280 366 380 150 134 414 315 766 525
120 72 218 134 218 138 0 7 -283 484 -314 528 -10 15 -41 -2 -251 -135z"/>
<path d="M6065 6035 c-38 -25 -77 -48 -85 -52 -8 -5 -33 -20 -55 -34 -22 -15
-161 -105 -310 -200 -321 -207 -464 -312 -680 -499 -50 -44 -348 -341 -395
-395 -191 -217 -395 -523 -530 -794 -108 -216 -168 -397 -205 -613 -9 -51 -18
-103 -20 -116 -17 -97 -23 -416 -11 -582 37 -549 209 -1013 471 -1275 149
-150 328 -246 565 -301 36 -9 79 -18 95 -20 17 -2 53 -7 80 -11 28 -4 138 -8
245 -7 177 0 205 3 300 27 202 51 373 157 502 312 193 229 279 450 279 719 0
105 -5 160 -26 287 -19 112 -96 283 -171 380 -58 75 -106 121 -225 212 -47 36
-174 99 -269 132 -172 60 -326 78 -703 78 l-259 0 7 69 c13 144 66 393 117
548 118 361 412 746 823 1079 53 42 111 83 254 178 86 57 161 106 167 110 5 5
21 14 35 22 13 8 98 59 189 113 91 54 176 105 190 113 14 7 26 20 27 27 2 7
-40 83 -92 168 -51 85 -122 203 -157 263 -34 59 -67 107 -73 107 -5 0 -41 -21
-80 -45z"/>
</g>
</svg>
